<?xml version="1.0" encoding="UTF-8" standalone="no"?>
<!-- Created with Inkscape (http://www.inkscape.org/) -->

<svg
   width="58.380997mm"
   height="18.41188mm"
   viewBox="0 0 58.380997 18.41188"
   version="1.1"
   id="svg28728"
   inkscape:version="1.2.2 (732a01da63, 2022-12-09)"
   sodipodi:docname="logo.svg"
   xml:space="preserve"
   xmlns:inkscape="http://www.inkscape.org/namespaces/inkscape"
   xmlns:sodipodi="http://sodipodi.sourceforge.net/DTD/sodipodi-0.dtd"
   xmlns="http://www.w3.org/2000/svg"
   xmlns:svg="http://www.w3.org/2000/svg"><sodipodi:namedview
     id="namedview28730"
     pagecolor="#ffffff"
     bordercolor="#999999"
     borderopacity="1"
     inkscape:showpageshadow="0"
     inkscape:pageopacity="0"
     inkscape:pagecheckerboard="0"
     inkscape:deskcolor="#d1d1d1"
     inkscape:document-units="mm"
     showgrid="false"
     inkscape:zoom="1.6819304"
     inkscape:cx="60.050047"
     inkscape:cy="124.85653"
     inkscape:current-layer="layer1" /><defs
     id="defs28725" /><g
     inkscape:label="Layer 1"
     inkscape:groupmode="layer"
     id="layer1"
     transform="translate(-135.66967,-60.01016)"><g
       id="g255"><path
         style="fill:#d2334b;fill-opacity:1;fill-rule:evenodd;stroke-width:0.0880172"
         d="m 135.66967,63.70128 0.98615,3.68021 3.68013,-0.98613 -0.98606,-3.68018 z"
         id="path61038" /><path
         style="fill:#2c3943;fill-opacity:1;fill-rule:evenodd;stroke-width:0.0880172"
         d="m 137.64188,71.06166 0.98612,3.68017 0.98606,3.68021 3.68022,-0.9861 -0.98614,-3.68021 -0.98606,-3.68017 z"
         id="path61040" /><path
         id="path61042"
         style="fill:#2c3943;fill-opacity:1;fill-rule:evenodd;stroke-width:0.0880172"
         d="m 142.08466,61.98239 0.98599,3.6799 3.67989,-0.98603 0.98586,3.67926 0.9862,3.68056 3.68056,-0.98621 -0.9862,-3.68055 -0.98586,-3.67923 -0.98599,-3.67993 -3.68056,0.98621 z" /><path
         d="m 160.28417,62.375088 h -5.83381 v 9.127811 h 5.83381 v -1.707998 h -3.97054 v -2.007453 h 3.31618 v -1.707999 h -3.31618 v -1.996362 h 3.97054 z"
         style="font-size:11.0909px;line-height:1.25;font-family:'Rabbid Highway Sign II';-inkscape-font-specification:'Rabbid Highway Sign II, Normal';fill:#2c3943;stroke-width:0.146417"
         id="path202" /><path
         d="m 163.02363,71.502899 v -3.061088 c 0,-0.210727 0,-0.410364 0.0222,-0.587818 0.0555,-0.831818 0.488,-1.253272 1.23109,-1.253272 0.854,0 1.25327,0.510182 1.25327,1.585999 l 0.0111,3.316179 h 1.78564 l -0.0111,-3.593452 c 0.0111,-1.774544 -1.14236,-2.894725 -3.03891,-2.883634 -0.62109,0 -1.13127,0.166364 -1.54163,0.432545 v -0.37709 h -1.55273 v 6.421631 z"
         style="font-size:11.0909px;line-height:1.25;font-family:'Rabbid Highway Sign II';-inkscape-font-specification:'Rabbid Highway Sign II, Normal';fill:#2c3943;stroke-width:0.146417"
         id="path204" /><path
         d="m 169.8778,68.219993 c 0,-1.009272 0.64327,-1.663635 1.51945,-1.663635 0.90945,0 1.38636,0.476908 1.49727,1.097999 0.0111,0.06654 0.0111,0.133091 0.0111,0.188545 v 0.421454 c 0,0.155273 -0.0111,0.299455 -0.0333,0.443636 -0.16636,0.732 -0.74309,1.186727 -1.47509,1.186727 -0.90945,0 -1.51945,-0.665454 -1.51945,-1.674726 z m 3.57127,-2.650726 c -0.56564,-0.443636 -1.29764,-0.609999 -2.00746,-0.632181 h -0.54345 c -1.63036,0.110909 -2.88363,1.585999 -2.88363,3.282907 0,1.707998 1.24218,3.194179 2.88363,3.282906 0.122,0.01109 0.25509,0.01109 0.37709,0.01109 0.62109,-0.02218 1.17564,-0.199636 1.60818,-0.587818 -0.0111,0.199637 -0.0222,0.388182 -0.0665,0.565636 -0.122,0.842909 -0.87619,1.164545 -1.50837,1.175636 -0.80963,0.02218 -1.464,-0.277273 -1.89654,-0.643273 l -0.93164,1.164545 c 0.58782,0.887272 1.75237,1.120181 2.81709,1.120181 1.81891,-0.01109 3.37164,-0.876181 3.37164,-3.061089 v -6.055631 h -1.19782 c 0,0.04436 0,0.232909 -0.0222,0.37709 z"
         style="font-size:11.0909px;line-height:1.25;font-family:'Rabbid Highway Sign II';-inkscape-font-specification:'Rabbid Highway Sign II, Normal';fill:#2c3943;stroke-width:0.146417"
         id="path206" /><path
         d="m 177.9298,71.502899 c 0.19963,-0.221818 0.56563,-1.463999 0.366,-1.696908 -0.26619,-0.01109 -0.92055,-0.07764 -1.05364,-0.654363 -0.0776,-0.210727 -0.13309,-0.487999 -0.13309,-0.842908 l -0.0333,-6.210904 h -1.78564 l 0.0222,6.255267 c 0,0.199637 0.0111,0.388182 0.0111,0.576727 0.0666,1.563817 0.82073,2.528726 2.60637,2.573089 z"
         style="font-size:11.0909px;line-height:1.25;font-family:'Rabbid Highway Sign II';-inkscape-font-specification:'Rabbid Highway Sign II, Normal';fill:#2c3943;stroke-width:0.146417"
         id="path208" /><path
         d="m 179.10543,63.107088 c 0,0.37709 0.0665,0.74309 0.15527,1.064726 0.19964,0.09982 0.43255,0.155273 0.68764,0.155273 0.26618,0 0.53236,-0.05546 0.75418,-0.155273 0.0998,-0.221818 0.15527,-0.465818 0.15527,-0.731999 0,-0.266182 -0.0555,-0.510182 -0.15527,-0.720909 -0.19964,-0.09982 -0.44364,-0.166363 -0.68764,-0.166363 -0.41036,0 -0.78745,0.25509 -0.90945,0.554545 z m -0.0222,8.395811 h 1.80781 v -6.41054 h -1.80781 z"
         style="font-size:11.0909px;line-height:1.25;font-family:'Rabbid Highway Sign II';-inkscape-font-specification:'Rabbid Highway Sign II, Normal';fill:#2c3943;stroke-width:0.146417"
         id="path210" /><path
         d="m 182.77652,69.462173 -1.12018,0.765273 c 0.47691,0.876181 1.65255,1.375271 2.72836,1.375271 1.33091,0 2.53982,-0.964908 2.53982,-2.051816 0.0111,-1.796726 -3.19418,-1.874362 -3.19418,-2.595271 0,-0.255091 0.18855,-0.488 0.67655,-0.488 0.49909,0 0.89836,0.122 1.3309,0.499091 l 1.03146,-0.74309 c -0.57673,-0.765273 -1.64145,-1.186727 -2.58418,-1.186727 -1.25327,0 -2.20709,1.075818 -2.20709,1.985271 0.0111,1.574908 2.77272,1.763454 3.03891,2.495453 0.0333,0.02218 0.0555,0.04436 0.0555,0.07764 0,0.277273 -0.26618,0.510182 -0.86509,0.510182 -0.58782,0 -1.04254,-0.199636 -1.43073,-0.643273 z"
         style="font-size:11.0909px;line-height:1.25;font-family:'Rabbid Highway Sign II';-inkscape-font-specification:'Rabbid Highway Sign II, Normal';fill:#2c3943;stroke-width:0.146417"
         id="path212" /><path
         d="m 189.57524,62.175452 h -1.79673 v 9.327447 h 1.79673 v -3.626724 c 0,-0.754181 0.56564,-1.330908 1.27545,-1.330908 0.74309,0 1.19782,0.576727 1.19782,1.330908 l 0.0111,3.626724 h 1.78564 v -3.671088 c 0,-0.244 -0.0222,-0.454727 -0.0665,-0.665454 -0.19963,-1.197817 -1.33091,-1.996362 -2.39563,-2.129453 -0.0776,-0.02218 -0.16637,-0.02218 -0.244,-0.02218 -0.57673,0 -1.13127,0.255091 -1.56382,0.632182 z"
         style="font-size:11.0909px;line-height:1.25;font-family:'Rabbid Highway Sign II';-inkscape-font-specification:'Rabbid Highway Sign II, Normal';fill:#2c3943;stroke-width:0.146417"
         id="path214" /><path
         d="m 175.42825,75.516895 v 0.854652 h 1.22944 v 0.301229 h -1.22944 v 0.991256 h -0.35026 v -2.451869 h 1.73031 v 0.304732 z"
         style="font-weight:500;font-size:3.50267px;line-height:1.25;font-family:Montserrat;-inkscape-font-specification:'Montserrat, Medium';letter-spacing:1.5171px;fill:#2c3943;stroke-width:0.0462411"
         id="path217" /><path
         d="m 179.89811,77.692053 q -0.37129,0 -0.66901,-0.161122 -0.29773,-0.164626 -0.46936,-0.451845 -0.16813,-0.287219 -0.16813,-0.640989 0,-0.353769 0.16813,-0.640988 0.17163,-0.287219 0.46936,-0.448342 0.29772,-0.164625 0.66901,-0.164625 0.36778,0 0.6655,0.164625 0.29773,0.161123 0.46586,0.448342 0.16813,0.283716 0.16813,0.640988 0,0.357273 -0.16813,0.644492 -0.16813,0.283716 -0.46586,0.448342 -0.29772,0.161122 -0.6655,0.161122 z m 0,-0.311737 q 0.2697,0 0.48336,-0.122594 0.21717,-0.122593 0.33976,-0.336256 0.1261,-0.217166 0.1261,-0.483369 0,-0.266202 -0.1261,-0.479865 -0.12259,-0.217166 -0.33976,-0.339759 -0.21366,-0.122594 -0.48336,-0.122594 -0.26971,0 -0.49038,0.122594 -0.21716,0.122593 -0.34326,0.339759 -0.12259,0.213663 -0.12259,0.479865 0,0.266203 0.12259,0.483369 0.1261,0.213663 0.34326,0.336256 0.22067,0.122594 0.49038,0.122594 z"
         style="font-weight:500;font-size:3.50267px;line-height:1.25;font-family:Montserrat;-inkscape-font-specification:'Montserrat, Medium';letter-spacing:1.5171px;fill:#2c3943;stroke-width:0.0462411"
         id="path219" /><path
         d="m 184.88986,77.664032 -0.52891,-0.753074 q -0.0981,0.007 -0.15411,0.007 h -0.60597 v 0.746069 h -0.35026 v -2.451869 h 0.95623 q 0.47636,0 0.74957,0.227674 0.2732,0.227673 0.2732,0.626977 0,0.283717 -0.1401,0.483369 -0.14011,0.199652 -0.39931,0.290722 l 0.58145,0.823127 z m -0.69353,-1.043796 q 0.33275,0 0.50788,-0.143609 0.17514,-0.14361 0.17514,-0.409813 0,-0.266202 -0.17514,-0.406309 -0.17513,-0.14361 -0.50788,-0.14361 h -0.59546 v 1.103341 z"
         style="font-weight:500;font-size:3.50267px;line-height:1.25;font-family:Montserrat;-inkscape-font-specification:'Montserrat, Medium';letter-spacing:1.5171px;fill:#2c3943;stroke-width:0.0462411"
         id="path221" /><path
         d="m 189.77346,75.212163 h 0.35027 v 2.451869 h -0.35027 z"
         style="font-weight:500;font-size:3.50267px;line-height:1.25;font-family:Montserrat;-inkscape-font-specification:'Montserrat, Medium';letter-spacing:1.5171px;fill:#2c3943;stroke-width:0.0462411"
         id="path223" /><path
         d="m 192.86326,75.516895 h -0.84065 v -0.304732 h 2.02805 v 0.304732 h -0.84064 v 2.147137 h -0.34676 z"
         style="font-weight:500;font-size:3.50267px;line-height:1.25;font-family:Montserrat;-inkscape-font-specification:'Montserrat, Medium';letter-spacing:1.5171px;fill:#2c3943;stroke-width:0.0462411"
         id="path225" /></g></g></svg>
